<svg width="24" height="24" viewBox="0 0 24 24" fill="none" xmlns="http://www.w3.org/2000/svg">
<path d="M20.682 16.2406L20.0325 16.6156L20.0332 16.6168L20.682 16.2406ZM12.0549 2L12.06 1.25H12.0549V2ZM11.9987 2V1.25L11.9978 1.25L11.9987 2ZM9.13839 2.57378L8.85004 1.88142V1.88142L9.13839 2.57378ZM6.71494 4.20058L6.18344 3.67142L6.18344 3.67142L6.71494 4.20058ZM5.09733 6.63275L5.79079 6.91842V6.91842L5.09733 6.63275ZM4.53181 9.5H5.28181L5.28181 9.49906L4.53181 9.5ZM3.3154 16.2406L3.96252 16.6198L3.96493 16.6156L3.3154 16.2406ZM3.3073 17.7454L2.65614 18.1175L2.65614 18.1175L3.3073 17.7454ZM3.8557 18.2977L4.23236 17.6492L4.23236 17.6492L3.8557 18.2977ZM4.60667 18.5V17.75H4.60659L4.60667 18.5ZM19.3908 18.5L19.3956 17.75H19.3908V18.5ZM20.1424 18.3013L19.7677 17.6516L19.7677 17.6516L20.1424 18.3013ZM20.6914 17.75L21.3426 18.1221L21.3449 18.1181L20.6914 17.75ZM20.8871 16.9941L21.6371 16.9894V16.9894L20.8871 16.9941ZM15.8364 19C15.8364 18.5858 15.5006 18.25 15.0864 18.25C14.6722 18.25 14.3364 18.5858 14.3364 19H15.8364ZM14.8584 20.1481L15.5516 20.4346L14.8584 20.1481ZM14.2094 21.1213L13.6785 20.5915L14.2094 21.1213ZM13.238 21.7716L13.5255 22.4644L13.238 21.7716ZM10.9463 21.7716L11.2338 21.0789L10.9463 21.7716ZM9.97487 21.1213L10.5057 20.5915L9.97487 21.1213ZM9.84787 19C9.84787 18.5858 9.51209 18.25 9.09787 18.25C8.68366 18.25 8.34787 18.5858 8.34787 19H9.84787ZM21.3316 15.8656C20.8579 15.0451 20.2156 13.3616 20.2156 10.25H18.7156C18.7156 13.5697 19.4021 15.5236 20.0325 16.6156L21.3316 15.8656ZM20.2156 10.25V9.58437H18.7156V10.25H20.2156ZM20.2156 9.58437C20.2156 5.0308 16.5729 1.28106 12.06 1.25002L12.0497 2.74998C15.7149 2.77519 18.7156 5.8317 18.7156 9.58437H20.2156ZM12.0549 1.25H11.9987V2.75H12.0549V1.25ZM11.9978 1.25C10.9173 1.25135 9.84769 1.46592 8.85004 1.88142L9.42674 3.26613C10.2423 2.92648 11.1166 2.75111 11.9997 2.75L11.9978 1.25ZM8.85004 1.88142C7.8524 2.29692 6.9463 2.90519 6.18344 3.67142L7.24644 4.72974C7.87032 4.1031 8.6112 3.60579 9.42674 3.26613L8.85004 1.88142ZM6.18344 3.67142C5.42059 4.43766 4.81591 5.34686 4.40387 6.34707L5.79079 6.91842C6.12791 6.10008 6.62257 5.35638 7.24644 4.72974L6.18344 3.67142ZM4.40387 6.34707C3.99182 7.34728 3.78046 8.41896 3.78181 9.50094L5.28181 9.49906C5.28071 8.61367 5.45367 7.73676 5.79079 6.91842L4.40387 6.34707ZM3.78181 9.5V10.25H5.28181V9.5H3.78181ZM3.78181 10.25C3.78181 13.3616 3.13957 15.0451 2.66587 15.8656L3.96493 16.6156C4.59536 15.5236 5.28181 13.5697 5.28181 10.25H3.78181ZM2.66829 15.8615C2.46806 16.2032 2.36154 16.5918 2.35941 16.9879L3.85939 16.9959C3.8601 16.8635 3.89571 16.7338 3.96251 16.6198L2.66829 15.8615ZM2.35941 16.9879C2.35727 17.3839 2.4596 17.7736 2.65614 18.1175L3.95845 17.3732C3.89288 17.2585 3.85867 17.1283 3.85939 16.9959L2.35941 16.9879ZM2.65614 18.1175C2.85268 18.4614 3.13651 18.7474 3.47905 18.9463L4.23236 17.6492C4.11856 17.5831 4.02402 17.4879 3.95845 17.3732L2.65614 18.1175ZM3.47904 18.9463C3.82159 19.1452 4.21062 19.25 4.60675 19.25L4.60659 17.75C4.47525 17.75 4.34616 17.7153 4.23236 17.6492L3.47904 18.9463ZM19.386 19.25C19.7829 19.2525 20.1732 19.1493 20.517 18.951L19.7677 17.6516C19.6545 17.7169 19.526 17.7508 19.3956 17.75L19.386 19.25ZM20.517 18.9511C20.8609 18.7528 21.1457 18.4667 21.3426 18.1221L20.0402 17.3779C19.9751 17.4919 19.881 17.5863 19.7677 17.6516L20.517 18.9511ZM21.3449 18.1181C21.5388 17.7737 21.6396 17.3846 21.6371 16.9894L20.1371 16.9987C20.138 17.133 20.1037 17.2651 20.038 17.3819L21.3449 18.1181ZM21.6371 16.9894C21.6347 16.5942 21.5291 16.2064 21.3309 15.8644L20.0332 16.6168C20.1004 16.7328 20.1363 16.8644 20.1371 16.9987L21.6371 16.9894ZM14.3364 19C14.3364 19.2957 14.2782 19.5884 14.1653 19.8615L15.5516 20.4346C15.7396 19.9797 15.8364 19.4923 15.8364 19H14.3364ZM14.1653 19.8615C14.0524 20.1346 13.887 20.3826 13.6785 20.5915L14.7402 21.6511C15.0878 21.3029 15.3635 20.8895 15.5516 20.4346L14.1653 19.8615ZM13.6785 20.5915C13.4701 20.8004 13.2227 20.966 12.9505 21.0789L13.5255 22.4644C13.9798 22.2758 14.3926 21.9994 14.7402 21.6511L13.6785 20.5915ZM12.9505 21.0789C12.6783 21.1919 12.3866 21.25 12.0921 21.25V22.75C12.584 22.75 13.0711 22.6529 13.5255 22.4644L12.9505 21.0789ZM12.0921 21.25C11.7976 21.25 11.5059 21.1919 11.2338 21.0789L10.6588 22.4644C11.1132 22.6529 11.6002 22.75 12.0921 22.75V21.25ZM11.2338 21.0789C10.9616 20.966 10.7142 20.8004 10.5057 20.5915L9.44403 21.6511C9.79165 21.9994 10.2044 22.2758 10.6588 22.4644L11.2338 21.0789ZM10.5057 20.5915C10.2972 20.3826 10.1318 20.1346 10.0189 19.8615L8.63269 20.4346C8.82074 20.8895 9.09641 21.3029 9.44403 21.6511L10.5057 20.5915ZM10.0189 19.8615C9.906 19.5884 9.84787 19.2957 9.84787 19H8.34787C8.34787 19.4923 8.44464 19.9797 8.63269 20.4346L10.0189 19.8615ZM4.60667 19.25H19.3908V17.75H4.60667V19.25Z" fill="#505050"/>
</svg>
