<svg width="20" height="20" viewBox="0 0 20 20" fill="none" xmlns="http://www.w3.org/2000/svg">
<path d="M16.867 9.32763L15.8438 9.73038L16.867 9.32667V9.32763ZM15.6342 6.7285V8.91623H17.8879V6.7285H15.6342ZM4.36578 8.91623V6.7285H2.11209V8.91623H4.36578ZM2.86707 12.1113L4.15618 9.72942L2.10983 8.92392L0.820722 11.3068L2.86707 12.1113ZM15.8438 9.72942L17.1329 12.1123L19.1793 11.3058L17.8902 8.92392L15.8438 9.72942ZM15.4043 14.4173H10V16.3397H15.4032L15.4043 14.4173ZM10 14.4173L4.59678 14.4182V16.3407L10 16.3397V14.4173ZM17.1329 12.1123C17.3628 12.5381 17.5161 12.8216 17.6197 13.0427C17.7234 13.2638 17.7392 13.3474 17.7414 13.3734L19.9872 13.2071C19.9464 12.905 19.8538 12.6096 19.7123 12.3305C19.5448 11.9854 19.3671 11.6431 19.1793 11.3058L17.1329 12.1123ZM15.4032 16.3397C15.9272 16.3397 16.3655 16.3407 16.716 16.3253C17.0723 16.3177 17.4254 16.2656 17.764 16.1705L17.0011 14.3615C16.9718 14.3711 16.8771 14.3932 16.5977 14.4057C16.3193 14.4182 15.952 14.4182 15.4032 14.4182V16.3397ZM17.7414 13.3734C17.7631 13.5847 17.7023 13.7962 17.5684 13.9749C17.4345 14.1536 17.235 14.2896 17.0011 14.3615L17.7651 16.1696C18.4669 15.9539 19.0653 15.5473 19.4673 15.0113C19.8692 14.4753 20.052 13.841 19.9872 13.2071L17.7414 13.3734ZM0.820722 11.3068C0.632927 11.6441 0.455204 11.9854 0.287725 12.3305C0.146221 12.6096 0.0535812 12.905 0.0127746 13.2071L2.25858 13.3734C2.26083 13.3474 2.27661 13.2638 2.38028 13.0427C2.48394 12.8216 2.6372 12.5371 2.86707 12.1113L0.820722 11.3068ZM4.59678 14.4182C4.04913 14.4182 3.68065 14.4182 3.40232 14.4057C3.12287 14.3932 3.02821 14.3702 2.99891 14.3615L2.23491 16.1696C2.57635 16.2743 2.93356 16.3089 3.28288 16.3243C3.63445 16.3407 4.07167 16.3407 4.59678 16.3407V14.4182ZM0.0127746 13.2071C-0.052001 13.841 0.130814 14.4753 0.532741 15.0113C0.934668 15.5473 1.53314 15.9539 2.23491 16.1696L2.99891 14.3615C2.76499 14.2896 2.56554 14.1536 2.43163 13.9749C2.29772 13.7962 2.23687 13.5847 2.25858 13.3734L0.0127746 13.2071ZM2.11209 8.91623C2.11209 8.91911 2.11209 8.92104 2.10983 8.92392L4.15618 9.73038C4.29366 9.4747 4.36578 9.1969 4.36578 8.91623H2.11209ZM15.6342 8.91623C15.6342 9.1969 15.7063 9.4747 15.8438 9.73038L17.8902 8.92392C17.8885 8.92091 17.8878 8.91858 17.8879 8.91527H15.6342V8.91623ZM10 1.92243C11.4943 1.92243 12.9274 2.42878 13.984 3.3301C15.0406 4.23141 15.6342 5.45385 15.6342 6.7285H17.8879C17.8879 4.94399 17.0569 3.23257 15.5776 1.97073C14.0983 0.708894 12.092 0 10 0V1.92243ZM10 0C7.90799 0 5.90167 0.708894 4.4224 1.97073C2.94313 3.23257 2.11209 4.94399 2.11209 6.7285H4.36578C4.36578 5.45385 4.95938 4.23141 6.016 3.3301C7.07262 2.42878 8.50571 1.92243 10 1.92243V0ZM6.80427 17.7959C6.65629 17.771 6.50395 17.7717 6.35628 17.7979C6.20861 17.8241 6.06861 17.8754 5.94459 17.9486C5.82057 18.0219 5.71505 18.1156 5.63428 18.2242C5.55351 18.3329 5.49915 18.4543 5.4744 18.5812C5.44965 18.7082 5.45502 18.838 5.49021 18.9631C5.52539 19.0883 5.58966 19.2061 5.67921 19.3096C5.76876 19.4131 5.88177 19.5003 6.01154 19.5659C6.14131 19.6315 6.28519 19.6742 6.43466 19.6914L6.80427 17.7959ZM13.5653 19.6914C13.7148 19.6742 13.8587 19.6315 13.9885 19.5659C14.1182 19.5003 14.2312 19.4131 14.3208 19.3096C14.4103 19.2061 14.4746 19.0883 14.5098 18.9631C14.545 18.838 14.5504 18.7082 14.5256 18.5812C14.5009 18.4543 14.4465 18.3329 14.3657 18.2242C14.2849 18.1156 14.1794 18.0219 14.0554 17.9486C13.9314 17.8754 13.7914 17.8241 13.6437 17.7979C13.4961 17.7717 13.3437 17.771 13.1957 17.7959L13.5653 19.6914ZM6.43466 19.6914L7.2212 19.8039L7.59193 17.9074L6.80427 17.7959L6.43466 19.6914ZM12.7788 19.8039L13.5653 19.6914L13.1957 17.7959L12.4081 17.9074L12.7788 19.8039ZM7.2212 19.8039C9.06134 20.0654 10.9398 20.0654 12.7788 19.8039L12.4081 17.9074C10.8136 18.1343 9.18529 18.1343 7.59193 17.9074L7.2212 19.8039Z" fill="white"/>
</svg>
