<svg width="20" height="22" viewBox="0 0 20 22" fill="none" xmlns="http://www.w3.org/2000/svg">
<path d="M1.10938 7.90976C1.10938 4.65247 1.10938 3.02382 2.08569 2.01191C3.062 1 4.63334 1 7.77604 1H12.2205C15.3632 1 16.9345 1 17.9108 2.01191C18.8872 3.02382 18.8872 4.65247 18.8872 7.90976V15.7726C18.8872 18.8627 18.8872 20.4078 17.949 20.8804C17.0109 21.353 15.8388 20.3984 13.4944 18.4892L12.7441 17.8782C11.4259 16.8047 10.7668 16.268 9.99826 16.268C9.22968 16.268 8.57058 16.8048 7.25239 17.8782L6.50211 18.4892C4.15776 20.3984 2.98558 21.353 2.04748 20.8804C1.10938 20.4078 1.10938 18.8627 1.10938 15.7726V7.90976Z" stroke="#404040" stroke-width="1.5"/>
</svg>
