<svg width="24" height="22" viewBox="0 0 24 22" fill="none" xmlns="http://www.w3.org/2000/svg">
<path d="M11.4019 3.12909L10.5464 2.50175C8.20489 0.784629 4.95291 1.07109 2.94763 3.1711C0.689993 5.5354 0.526787 9.21925 2.68581 11.6739C3.40896 12.4961 4.14963 13.3125 4.81676 14C6.81511 16.0594 9.92493 18.7882 11.2614 19.9444C11.5673 20.2091 11.7202 20.3414 11.9071 20.341C12.0939 20.3406 12.2464 20.2076 12.5514 19.9416C13.8826 18.7805 16.9821 16.0441 18.9986 14C19.6475 13.3422 20.3685 12.5693 21.0792 11.7869C23.3438 9.29396 23.1709 5.47577 20.7896 3.09404C18.8083 1.11233 15.689 0.84212 13.3964 2.45358L12.4208 3.13932C12.1141 3.35487 11.7042 3.35075 11.4019 3.12909Z" stroke="#404040" stroke-width="1.5"/>
</svg>
