<svg width="24" height="24" viewBox="0 0 24 24" fill="none" xmlns="http://www.w3.org/2000/svg">
<path d="M19.5 20.8123H15C14.6519 20.8123 14.3181 20.674 14.0719 20.4279C13.8258 20.1817 13.6875 19.8479 13.6875 19.4998V14.9998C13.6875 14.9501 13.6677 14.9024 13.6326 14.8672C13.5974 14.832 13.5497 14.8123 13.5 14.8123H10.5C10.4503 14.8123 10.4026 14.832 10.3674 14.8672C10.3323 14.9024 10.3125 14.9501 10.3125 14.9998V19.4998C10.3125 19.8479 10.1742 20.1817 9.92808 20.4279C9.68194 20.674 9.3481 20.8123 9 20.8123H4.5C4.1525 20.8093 3.81974 20.6715 3.57187 20.4279C3.32661 20.1812 3.1885 19.8477 3.1875 19.4998V10.8279C3.1879 10.6458 3.22649 10.4657 3.30077 10.2994C3.37505 10.1331 3.48337 9.98416 3.61875 9.86229L11.1187 3.03729C11.3611 2.82052 11.6748 2.70068 12 2.70068C12.3252 2.70068 12.6389 2.82052 12.8812 3.03729L20.3812 9.86229C20.5166 9.98416 20.625 10.1331 20.6992 10.2994C20.7735 10.4657 20.8121 10.6458 20.8125 10.8279V19.4998C20.8125 19.8479 20.6742 20.1817 20.4281 20.4279C20.1819 20.674 19.8481 20.8123 19.5 20.8123ZM10.5 13.6873H13.5C13.8481 13.6873 14.1819 13.8256 14.4281 14.0717C14.6742 14.3179 14.8125 14.6517 14.8125 14.9998V19.4998C14.8125 19.5495 14.8323 19.5972 14.8674 19.6324C14.9026 19.6675 14.9503 19.6873 15 19.6873H19.5C19.549 19.685 19.5954 19.6645 19.63 19.6298C19.6647 19.5952 19.6852 19.5488 19.6875 19.4998V10.8279C19.6883 10.8033 19.6837 10.7787 19.6739 10.756C19.6642 10.7334 19.6496 10.7131 19.6312 10.6967L12.1219 3.87167C12.0889 3.84069 12.0453 3.82345 12 3.82345C11.9547 3.82345 11.9111 3.84069 11.8781 3.87167L4.37813 10.6967C4.35686 10.7111 4.33966 10.7307 4.32817 10.7537C4.31668 10.7767 4.31128 10.8023 4.3125 10.8279V19.4998C4.31478 19.5488 4.33527 19.5952 4.36995 19.6298C4.40463 19.6645 4.45101 19.685 4.5 19.6873H9C9.04973 19.6873 9.09742 19.6675 9.13258 19.6324C9.16775 19.5972 9.1875 19.5495 9.1875 19.4998V14.9998C9.1875 14.6517 9.32578 14.3179 9.57192 14.0717C9.81806 13.8256 10.1519 13.6873 10.5 13.6873Z" fill="black"/>
</svg>
