<svg width="24" height="24" viewBox="0 0 24 24" fill="none" xmlns="http://www.w3.org/2000/svg">
<path d="M21 10.8283V19.5002C20.9994 19.7709 20.9259 20.0365 20.7874 20.269C20.6488 20.5016 20.4503 20.6926 20.2125 20.8221C19.9945 20.9423 19.749 21.0037 19.5 21.0002H15C14.8011 21.0002 14.6103 20.9212 14.4697 20.7805C14.329 20.6399 14.25 20.4491 14.25 20.2502V15.7502C14.25 15.5513 14.171 15.3605 14.0303 15.2199C13.8897 15.0792 13.6989 15.0002 13.5 15.0002H10.5C10.3011 15.0002 10.1103 15.0792 9.96969 15.2199C9.82904 15.3605 9.75002 15.5513 9.75002 15.7502V20.2502C9.75002 20.4491 9.671 20.6399 9.53035 20.7805C9.3897 20.9212 9.19893 21.0002 9.00002 21.0002H4.50002C4.28723 21.001 4.07674 20.9562 3.88269 20.8689C3.68864 20.7816 3.51554 20.6537 3.37502 20.494C3.13117 20.2059 2.99819 19.8402 3.00002 19.4627V10.8283C3.00008 10.6202 3.04346 10.4144 3.12739 10.2239C3.21132 10.0335 3.33396 9.86257 3.48752 9.72208L10.9875 2.90646C11.264 2.65348 11.6252 2.51318 12 2.51318C12.3748 2.51318 12.736 2.65348 13.0125 2.90646L20.5125 9.72208C20.6661 9.86257 20.7887 10.0335 20.8726 10.2239C20.9566 10.4144 21 10.6202 21 10.8283Z" fill="black"/>
</svg>
