<svg width="22" height="22" viewBox="0 0 22 22" fill="none" xmlns="http://www.w3.org/2000/svg">
<path d="M10.0835 16.5002H11.9168V14.6668H10.0835V16.5002ZM11.0002 1.8335C9.79638 1.8335 8.60438 2.0706 7.49223 2.53127C6.38008 2.99194 5.36955 3.66715 4.51835 4.51835C2.79927 6.23743 1.8335 8.56901 1.8335 11.0002C1.8335 13.4313 2.79927 15.7629 4.51835 17.482C5.36955 18.3332 6.38008 19.0084 7.49223 19.4691C8.60438 19.9297 9.79638 20.1668 11.0002 20.1668C13.4313 20.1668 15.7629 19.2011 17.482 17.482C19.2011 15.7629 20.1668 13.4313 20.1668 11.0002C20.1668 9.79638 19.9297 8.60438 19.4691 7.49223C19.0084 6.38008 18.3332 5.36955 17.482 4.51835C16.6308 3.66715 15.6202 2.99194 14.5081 2.53127C13.3959 2.0706 12.2039 1.8335 11.0002 1.8335ZM11.0002 18.3335C6.95766 18.3335 3.66683 15.0427 3.66683 11.0002C3.66683 6.95766 6.95766 3.66683 11.0002 3.66683C15.0427 3.66683 18.3335 6.95766 18.3335 11.0002C18.3335 15.0427 15.0427 18.3335 11.0002 18.3335ZM11.0002 5.50016C10.0277 5.50016 9.09507 5.88647 8.40744 6.5741C7.7198 7.26174 7.3335 8.19437 7.3335 9.16683H9.16683C9.16683 8.6806 9.35998 8.21428 9.7038 7.87047C10.0476 7.52665 10.5139 7.3335 11.0002 7.3335C11.4864 7.3335 11.9527 7.52665 12.2965 7.87047C12.6403 8.21428 12.8335 8.6806 12.8335 9.16683C12.8335 11.0002 10.0835 10.771 10.0835 13.7502H11.9168C11.9168 11.6877 14.6668 11.4585 14.6668 9.16683C14.6668 8.19437 14.2805 7.26174 13.5929 6.5741C12.9053 5.88647 11.9726 5.50016 11.0002 5.50016Z" fill="#999999"/>
</svg>
