<svg width="16" height="16" viewBox="0 0 16 16" fill="none" xmlns="http://www.w3.org/2000/svg">
<rect width="16" height="16" rx="8" fill="#D0D0D0"/>
<path d="M7.16948 9.36222V9.26989C7.17185 8.84138 7.21209 8.50047 7.29022 8.24716C7.37071 7.99384 7.48435 7.79025 7.63113 7.63636C7.77791 7.48011 7.95665 7.33688 8.16735 7.20668C8.31176 7.11671 8.44078 7.01847 8.55442 6.91193C8.67042 6.80303 8.76157 6.68229 8.82786 6.54972C8.89415 6.41477 8.92729 6.26444 8.92729 6.09872C8.92729 5.9117 8.88349 5.74953 8.7959 5.61222C8.7083 5.47491 8.58993 5.36837 8.44078 5.29261C8.294 5.21686 8.12947 5.17898 7.94718 5.17898C7.77909 5.17898 7.61929 5.21567 7.46777 5.28906C7.31863 5.36009 7.19434 5.46899 7.0949 5.61577C6.99784 5.76018 6.94339 5.94366 6.93155 6.16619H5.66735C5.67918 5.71638 5.78809 5.33996 5.99405 5.03693C6.20239 4.7339 6.47701 4.50663 6.81792 4.35511C7.16119 4.2036 7.53998 4.12784 7.95428 4.12784C8.40646 4.12784 8.80418 4.20715 9.14746 4.36577C9.4931 4.52438 9.76181 4.75047 9.95357 5.04403C10.1477 5.33523 10.2448 5.68087 10.2448 6.08097C10.2448 6.35085 10.201 6.59233 10.1134 6.8054C10.0281 7.01847 9.90622 7.20786 9.7476 7.37358C9.58899 7.5393 9.40078 7.68726 9.18297 7.81747C8.99121 7.93584 8.83378 8.05895 8.71067 8.18679C8.58993 8.31463 8.49997 8.46496 8.44078 8.63778C8.38397 8.80824 8.35437 9.01894 8.35201 9.26989V9.36222H7.16948ZM7.78738 11.5781C7.57431 11.5781 7.39083 11.5024 7.23695 11.3509C7.08307 11.1993 7.00613 11.0147 7.00613 10.7969C7.00613 10.5838 7.08307 10.4015 7.23695 10.25C7.39083 10.0985 7.57431 10.0227 7.78738 10.0227C7.99808 10.0227 8.18037 10.0985 8.33425 10.25C8.4905 10.4015 8.56863 10.5838 8.56863 10.7969C8.56863 10.9413 8.53193 11.0727 8.45854 11.1911C8.38752 11.3094 8.29282 11.4041 8.17445 11.4751C8.05845 11.5438 7.92942 11.5781 7.78738 11.5781Z" fill="white"/>
</svg>
