<svg width="18" height="18" viewBox="0 0 18 18" fill="none" xmlns="http://www.w3.org/2000/svg">
<path d="M11.154 3.26695V1.58898C11.154 1.12563 10.7216 0.75 10.1881 0.75H7.29059C6.75716 0.75 6.32473 1.12563 6.32473 1.58898V3.26695M6.32473 8.30085V9.69915C6.32473 10.1625 5.89231 10.5381 5.35888 10.5381H4.71498C4.18155 10.5381 3.74912 10.1625 3.74912 9.69915V8.30085M13.7296 8.30085V9.69915C13.7296 10.1625 13.2972 10.5381 12.7638 10.5381H12.1199C11.5864 10.5381 11.154 10.1625 11.154 9.69915V8.30085M0.851562 8.44068H16.9491M1.81742 17.25H15.9833C16.5167 17.25 16.9491 16.8744 16.9491 16.411V4.10593C16.9491 3.64257 16.5167 3.26695 15.9833 3.26695H1.81742C1.28399 3.26695 0.851562 3.64257 0.851562 4.10593V16.411C0.851562 16.8744 1.28399 17.25 1.81742 17.25Z" stroke="#404040" stroke-width="1.5"/>
</svg>
