<svg width="22" height="22" viewBox="0 0 22 22" fill="none" xmlns="http://www.w3.org/2000/svg">
<path d="M12.8332 1.8335H5.49984C5.01361 1.8335 4.54729 2.02665 4.20347 2.37047C3.85966 2.71428 3.6665 3.1806 3.6665 3.66683V18.3335C3.6665 19.351 4.48234 20.1668 5.49984 20.1668H16.4998C17.5173 20.1668 18.3332 19.351 18.3332 18.3335V7.3335L12.8332 1.8335ZM16.4998 18.3335H5.49984V3.66683H11.9165V8.25016H16.4998V18.3335ZM11.9165 11.9168C11.9165 12.9252 11.0915 13.7502 10.0832 13.7502C9.07484 13.7502 8.24984 12.9252 8.24984 11.9168C8.24984 10.9085 9.07484 10.0835 10.0832 10.0835C11.0915 10.0835 11.9165 10.9085 11.9165 11.9168ZM13.7498 16.5002V17.4168H6.4165V16.5002C6.4165 15.281 8.864 14.6668 10.0832 14.6668C11.3023 14.6668 13.7498 15.281 13.7498 16.5002Z" fill="black"/>
</svg>
