<svg width="22" height="22" viewBox="0 0 22 22" fill="none" xmlns="http://www.w3.org/2000/svg">
<path d="M11.9165 8.25016H16.9582L11.9165 3.2085V8.25016ZM5.49984 1.8335H12.8332L18.3332 7.3335V18.3335C18.3332 18.8197 18.14 19.286 17.7962 19.6299C17.4524 19.9737 16.9861 20.1668 16.4998 20.1668H5.49984C5.01361 20.1668 4.54729 19.9737 4.20347 19.6299C3.85966 19.286 3.6665 18.8197 3.6665 18.3335V3.66683C3.6665 2.64933 4.48234 1.8335 5.49984 1.8335ZM12.8332 18.3335V17.4168C12.8332 16.1977 10.3857 15.5835 9.1665 15.5835C7.94734 15.5835 5.49984 16.1977 5.49984 17.4168V18.3335H12.8332ZM9.1665 11.0002C8.68027 11.0002 8.21396 11.1933 7.87014 11.5371C7.52633 11.881 7.33317 12.3473 7.33317 12.8335C7.33317 13.3197 7.52633 13.786 7.87014 14.1299C8.21396 14.4737 8.68027 14.6668 9.1665 14.6668C9.65273 14.6668 10.119 14.4737 10.4629 14.1299C10.8067 13.786 10.9998 13.3197 10.9998 12.8335C10.9998 12.3473 10.8067 11.881 10.4629 11.5371C10.119 11.1933 9.65273 11.0002 9.1665 11.0002Z" fill="black"/>
</svg>
