<svg width="22" height="22" viewBox="0 0 22 22" fill="none" xmlns="http://www.w3.org/2000/svg">
<g clip-path="url(#clip0_16_73)">
<path d="M11 22C13.9174 22 16.7153 20.8411 18.7782 18.7782C20.8411 16.7153 22 13.9174 22 11C22 8.08262 20.8411 5.28473 18.7782 3.22183C16.7153 1.15893 13.9174 0 11 0C8.08262 0 5.28473 1.15893 3.22183 3.22183C1.15893 5.28473 0 8.08262 0 11C0 13.9174 1.15893 16.7153 3.22183 18.7782C5.28473 20.8411 8.08262 22 11 22ZM9.625 8.9375C9.625 10.076 9.009 11 8.25 11C7.491 11 6.875 10.076 6.875 8.9375C6.875 7.799 7.491 6.875 8.25 6.875C9.009 6.875 9.625 7.799 9.625 8.9375ZM5.89187 13.1546C6.04978 13.0635 6.23743 13.0388 6.41355 13.0859C6.58967 13.1331 6.73983 13.2483 6.831 13.4062C7.25328 14.1382 7.86095 14.746 8.59283 15.1684C9.32471 15.5909 10.155 15.813 11 15.8125C11.845 15.813 12.6753 15.5909 13.4072 15.1684C14.1391 14.746 14.7467 14.1382 15.169 13.4062C15.2138 13.3274 15.2738 13.2583 15.3454 13.2027C15.4171 13.1472 15.499 13.1063 15.5865 13.0826C15.674 13.0588 15.7654 13.0526 15.8553 13.0643C15.9452 13.076 16.0319 13.1053 16.1104 13.1507C16.1889 13.196 16.2577 13.2564 16.3128 13.3284C16.3679 13.4005 16.4081 13.4827 16.4313 13.5703C16.4545 13.658 16.4601 13.7494 16.4478 13.8392C16.4355 13.929 16.4056 14.0155 16.3597 14.0938C15.8168 15.0347 15.0356 15.8161 14.0947 16.3592C13.1538 16.9023 12.0864 17.188 11 17.1875C9.9136 17.188 8.84625 16.9023 7.90535 16.3592C6.96445 15.8161 6.18321 15.0347 5.64025 14.0938C5.54909 13.9358 5.52438 13.7482 5.57157 13.5721C5.61876 13.396 5.73397 13.2458 5.89187 13.1546ZM13.75 11C12.991 11 12.375 10.076 12.375 8.9375C12.375 7.799 12.991 6.875 13.75 6.875C14.509 6.875 15.125 7.799 15.125 8.9375C15.125 10.076 14.509 11 13.75 11Z" fill="black"/>
</g>
<defs>
<clipPath id="clip0_16_73">
<rect width="22" height="22" fill="white"/>
</clipPath>
</defs>
</svg>
