<svg width="22" height="22" viewBox="0 0 22 22" fill="none" xmlns="http://www.w3.org/2000/svg">
<g clip-path="url(#clip0_16_69)">
<path d="M11 20.625C8.44729 20.625 5.99913 19.6109 4.1941 17.8059C2.38906 16.0009 1.375 13.5527 1.375 11C1.375 8.44729 2.38906 5.99913 4.1941 4.1941C5.99913 2.38906 8.44729 1.375 11 1.375C13.5527 1.375 16.0009 2.38906 17.8059 4.1941C19.6109 5.99913 20.625 8.44729 20.625 11C20.625 13.5527 19.6109 16.0009 17.8059 17.8059C16.0009 19.6109 13.5527 20.625 11 20.625ZM11 22C13.9174 22 16.7153 20.8411 18.7782 18.7782C20.8411 16.7153 22 13.9174 22 11C22 8.08262 20.8411 5.28473 18.7782 3.22183C16.7153 1.15893 13.9174 0 11 0C8.08262 0 5.28473 1.15893 3.22183 3.22183C1.15893 5.28473 0 8.08262 0 11C0 13.9174 1.15893 16.7153 3.22183 18.7782C5.28473 20.8411 8.08262 22 11 22Z" fill="black"/>
<path d="M5.89207 13.1546C6.04997 13.0635 6.23763 13.0388 6.41374 13.0859C6.58986 13.1331 6.74002 13.2483 6.8312 13.4062C7.25347 14.1382 7.86114 14.746 8.59302 15.1684C9.3249 15.5909 10.1552 15.813 11.0002 15.8125C11.8452 15.813 12.6755 15.5909 13.4074 15.1684C14.1392 14.746 14.7469 14.1382 15.1692 13.4062C15.214 13.3274 15.274 13.2583 15.3456 13.2027C15.4173 13.1472 15.4992 13.1063 15.5867 13.0826C15.6742 13.0588 15.7656 13.0526 15.8555 13.0643C15.9454 13.076 16.0321 13.1053 16.1106 13.1507C16.1891 13.196 16.2579 13.2564 16.313 13.3284C16.3681 13.4005 16.4083 13.4827 16.4315 13.5703C16.4547 13.658 16.4603 13.7494 16.448 13.8392C16.4357 13.929 16.4058 14.0155 16.3599 14.0938C15.817 15.0347 15.0357 15.8161 14.0948 16.3592C13.154 16.9023 12.0866 17.188 11.0002 17.1875C9.9138 17.188 8.84644 16.9023 7.90554 16.3592C6.96464 15.8161 6.1834 15.0347 5.64045 14.0938C5.54928 13.9358 5.52458 13.7482 5.57177 13.5721C5.61895 13.396 5.73417 13.2458 5.89207 13.1546ZM9.6252 8.9375C9.6252 10.076 9.0092 11 8.2502 11C7.4912 11 6.8752 10.076 6.8752 8.9375C6.8752 7.799 7.4912 6.875 8.2502 6.875C9.0092 6.875 9.6252 7.799 9.6252 8.9375ZM15.1252 8.9375C15.1252 10.076 14.5092 11 13.7502 11C12.9912 11 12.3752 10.076 12.3752 8.9375C12.3752 7.799 12.9912 6.875 13.7502 6.875C14.5092 6.875 15.1252 7.799 15.1252 8.9375Z" fill="black"/>
</g>
<defs>
<clipPath id="clip0_16_69">
<rect width="22" height="22" fill="white"/>
</clipPath>
</defs>
</svg>
