<svg width="24" height="24" viewBox="0 0 24 24" fill="none" xmlns="http://www.w3.org/2000/svg">
<path fill-rule="evenodd" clip-rule="evenodd" d="M12.0002 1.39991C10.6014 1.39804 9.2491 1.90176 8.19237 2.81825C7.13564 3.73473 6.44572 5.00224 6.24973 6.38724C6.05373 7.77223 6.36487 9.1814 7.12582 10.3551C7.88677 11.5288 9.04625 12.388 10.3906 12.7743C8.48023 13.0063 6.84183 13.6815 5.60663 14.8991C4.03543 16.4463 3.24023 18.7519 3.24023 21.7599C3.24023 21.9615 3.32031 22.1548 3.46283 22.2973C3.60536 22.4398 3.79867 22.5199 4.00023 22.5199C4.2018 22.5199 4.39511 22.4398 4.53764 22.2973C4.68016 22.1548 4.76023 21.9615 4.76023 21.7599C4.76023 19.0079 5.48503 17.1519 6.67383 15.9807C7.86423 14.8079 9.64343 14.1999 12.0002 14.1999C14.357 14.1999 16.1362 14.8079 17.3282 15.9807C18.5154 17.1535 19.2402 19.0079 19.2402 21.7599C19.2402 21.9615 19.3203 22.1548 19.4628 22.2973C19.6054 22.4398 19.7987 22.5199 20.0002 22.5199C20.2018 22.5199 20.3951 22.4398 20.5376 22.2973C20.6802 22.1548 20.7602 21.9615 20.7602 21.7599C20.7602 18.7519 19.965 16.4479 18.3922 14.8991C17.1602 13.6831 15.5202 13.0063 13.6098 12.7743C14.9497 12.3836 16.104 11.5232 16.8609 10.3506C17.6179 9.17801 17.927 7.7719 17.7314 6.38997C17.5358 5.00805 16.8488 3.7429 15.7962 2.8264C14.7436 1.9099 13.3959 1.40347 12.0002 1.39991ZM7.72023 7.19991C7.72023 6.06478 8.17116 4.97615 8.97382 4.17349C9.77647 3.37083 10.8651 2.91991 12.0002 2.91991C13.1354 2.91991 14.224 3.37083 15.0267 4.17349C15.8293 4.97615 16.2802 6.06478 16.2802 7.19991C16.2802 8.33503 15.8293 9.42367 15.0267 10.2263C14.224 11.029 13.1354 11.4799 12.0002 11.4799C10.8651 11.4799 9.77647 11.029 8.97382 10.2263C8.17116 9.42367 7.72023 8.33503 7.72023 7.19991Z" fill="black"/>
</svg>
