<svg width="21" height="21" viewBox="0 0 21 21" fill="none" xmlns="http://www.w3.org/2000/svg">
<path d="M18.6478 6.94805C18.5261 6.82553 18.3814 6.72836 18.2219 6.66218C18.0624 6.596 17.8914 6.56212 17.7188 6.5625H15.0938V5.90625C15.0938 4.68791 14.6098 3.51947 13.7483 2.65798C12.8868 1.79648 11.7183 1.3125 10.5 1.3125C9.28166 1.3125 8.11322 1.79648 7.25173 2.65798C6.39023 3.51947 5.90625 4.68791 5.90625 5.90625V6.5625H3.28125C2.93315 6.5625 2.59931 6.70078 2.35317 6.94692C2.10703 7.19306 1.96875 7.5269 1.96875 7.875V16.7344C1.96875 18.334 3.32227 19.6875 4.92188 19.6875H16.0781C16.8519 19.6877 17.595 19.3852 18.1486 18.8446C18.4272 18.5789 18.649 18.2594 18.8007 17.9055C18.9524 17.5516 19.0309 17.1707 19.0313 16.7856V7.875C19.0318 7.70281 18.9982 7.53223 18.9323 7.37311C18.8665 7.214 18.7698 7.06953 18.6478 6.94805ZM7.21875 5.90625C7.21875 5.03601 7.56445 4.20141 8.17981 3.58606C8.79516 2.9707 9.62976 2.625 10.5 2.625C11.3702 2.625 12.2048 2.9707 12.8202 3.58606C13.4355 4.20141 13.7813 5.03601 13.7813 5.90625V6.5625H7.21875V5.90625ZM15.0938 9.84375C15.0938 11.0621 14.6098 12.2305 13.7483 13.092C12.8868 13.9535 11.7183 14.4375 10.5 14.4375C9.28166 14.4375 8.11322 13.9535 7.25173 13.092C6.39023 12.2305 5.90625 11.0621 5.90625 9.84375V9.1875C5.90625 9.01345 5.97539 8.84653 6.09846 8.72346C6.22153 8.60039 6.38845 8.53125 6.5625 8.53125C6.73655 8.53125 6.90347 8.60039 7.02654 8.72346C7.14961 8.84653 7.21875 9.01345 7.21875 9.1875V9.84375C7.21875 10.714 7.56445 11.5486 8.17981 12.1639C8.79516 12.7793 9.62976 13.125 10.5 13.125C11.3702 13.125 12.2048 12.7793 12.8202 12.1639C13.4355 11.5486 13.7813 10.714 13.7813 9.84375V9.1875C13.7813 9.01345 13.8504 8.84653 13.9735 8.72346C14.0965 8.60039 14.2635 8.53125 14.4375 8.53125C14.6115 8.53125 14.7785 8.60039 14.9015 8.72346C15.0246 8.84653 15.0938 9.01345 15.0938 9.1875V9.84375Z" fill="black"/>
</svg>
