<svg width="21" height="21" viewBox="0 0 21 21" fill="none" xmlns="http://www.w3.org/2000/svg">
<path d="M6.5625 7.21875V5.90625C6.5625 4.86196 6.97734 3.86044 7.71577 3.12202C8.45419 2.38359 9.45571 1.96875 10.5 1.96875C11.5443 1.96875 12.5458 2.38359 13.2842 3.12202C14.0227 3.86044 14.4375 4.86196 14.4375 5.90625V7.21875M3.28125 7.21875C3.1072 7.21875 2.94028 7.28789 2.81721 7.41096C2.69414 7.53403 2.625 7.70095 2.625 7.875V16.7344C2.625 17.9747 3.68156 19.0312 4.92188 19.0312H16.0781C17.3184 19.0312 18.375 18.026 18.375 16.7856V7.875C18.375 7.70095 18.3059 7.53403 18.1828 7.41096C18.0597 7.28789 17.8928 7.21875 17.7188 7.21875H3.28125Z" stroke="black" stroke-width="1.5" stroke-linecap="round" stroke-linejoin="round"/>
<path d="M6.5625 9.1875V9.84375C6.5625 10.888 6.97734 11.8896 7.71577 12.628C8.45419 13.3664 9.45571 13.7812 10.5 13.7812C11.5443 13.7812 12.5458 13.3664 13.2842 12.628C14.0227 11.8896 14.4375 10.888 14.4375 9.84375V9.1875" stroke="black" stroke-width="1.5" stroke-linecap="round" stroke-linejoin="round"/>
</svg>
